<mxfile host="app.diagrams.net" modified="2023-09-01T06:35:39.307Z" agent="Mozilla/5.0 (Windows NT 10.0; Win64; x64) AppleWebKit/537.36 (KHTML, like Gecko) Chrome/116.0.0.0 Safari/537.36" etag="PZXRlL-q6tyC0lMeWz4x" version="21.7.1" type="device">
  <diagram name="Page-1" id="GJ_rANYZ_voVsSWvN0BR">
    <mxGraphModel dx="1050" dy="542" grid="1" gridSize="10" guides="1" tooltips="1" connect="1" arrows="1" fold="1" page="1" pageScale="1" pageWidth="850" pageHeight="1100" math="0" shadow="0">
      <root>
        <mxCell id="0" />
        <mxCell id="1" parent="0" />
        <mxCell id="QXCr8s2CiWURYvBZmWhz-1" value="" style="rounded=0;whiteSpace=wrap;html=1;fillColor=none;" vertex="1" parent="1">
          <mxGeometry x="40" y="40" width="760" height="360" as="geometry" />
        </mxCell>
        <mxCell id="QXCr8s2CiWURYvBZmWhz-2" value="div" style="text;html=1;strokeColor=#b85450;fillColor=#f8cecc;align=center;verticalAlign=middle;whiteSpace=wrap;rounded=0;" vertex="1" parent="1">
          <mxGeometry x="50" y="40" width="60" height="30" as="geometry" />
        </mxCell>
        <mxCell id="QXCr8s2CiWURYvBZmWhz-3" value="h5" style="text;html=1;strokeColor=#6c8ebf;fillColor=#dae8fc;align=center;verticalAlign=middle;whiteSpace=wrap;rounded=0;" vertex="1" parent="1">
          <mxGeometry x="390" y="90" width="70" height="30" as="geometry" />
        </mxCell>
        <mxCell id="QXCr8s2CiWURYvBZmWhz-4" value="h1" style="text;html=1;strokeColor=#9673a6;fillColor=#e1d5e7;align=center;verticalAlign=middle;whiteSpace=wrap;rounded=0;" vertex="1" parent="1">
          <mxGeometry x="270" y="180" width="310" height="30" as="geometry" />
        </mxCell>
        <mxCell id="QXCr8s2CiWURYvBZmWhz-5" value="h3" style="text;html=1;strokeColor=#6c8ebf;fillColor=#dae8fc;align=center;verticalAlign=middle;whiteSpace=wrap;rounded=0;" vertex="1" parent="1">
          <mxGeometry x="345" y="240" width="160" height="30" as="geometry" />
        </mxCell>
        <mxCell id="QXCr8s2CiWURYvBZmWhz-6" value="" style="rounded=0;whiteSpace=wrap;html=1;fillColor=none;" vertex="1" parent="1">
          <mxGeometry x="220" y="70" width="420" height="290" as="geometry" />
        </mxCell>
        <mxCell id="QXCr8s2CiWURYvBZmWhz-7" value="div" style="text;html=1;strokeColor=#d6b656;fillColor=#fff2cc;align=center;verticalAlign=middle;whiteSpace=wrap;rounded=0;" vertex="1" parent="1">
          <mxGeometry x="220" y="70" width="60" height="30" as="geometry" />
        </mxCell>
        <mxCell id="QXCr8s2CiWURYvBZmWhz-8" value="button" style="rounded=1;whiteSpace=wrap;html=1;fillColor=#f8cecc;strokeColor=#b85450;" vertex="1" parent="1">
          <mxGeometry x="365" y="300" width="120" height="30" as="geometry" />
        </mxCell>
        <mxCell id="QXCr8s2CiWURYvBZmWhz-9" value="" style="endArrow=none;html=1;rounded=0;" edge="1" parent="1" target="QXCr8s2CiWURYvBZmWhz-1">
          <mxGeometry width="50" height="50" relative="1" as="geometry">
            <mxPoint x="50" y="400" as="sourcePoint" />
            <mxPoint x="100" y="350" as="targetPoint" />
          </mxGeometry>
        </mxCell>
        <mxCell id="QXCr8s2CiWURYvBZmWhz-14" value="" style="endArrow=none;html=1;rounded=0;exitX=1;exitY=1;exitDx=0;exitDy=0;" edge="1" parent="1" source="QXCr8s2CiWURYvBZmWhz-1">
          <mxGeometry width="50" height="50" relative="1" as="geometry">
            <mxPoint y="90" as="sourcePoint" />
            <mxPoint x="50" y="40" as="targetPoint" />
          </mxGeometry>
        </mxCell>
        <mxCell id="QXCr8s2CiWURYvBZmWhz-15" value="" style="rounded=0;whiteSpace=wrap;html=1;" vertex="1" parent="1">
          <mxGeometry x="40" y="430" width="760" height="200" as="geometry" />
        </mxCell>
        <mxCell id="QXCr8s2CiWURYvBZmWhz-16" value="" style="rounded=0;whiteSpace=wrap;html=1;" vertex="1" parent="1">
          <mxGeometry x="90" y="475" width="120" height="110" as="geometry" />
        </mxCell>
        <mxCell id="QXCr8s2CiWURYvBZmWhz-17" value="" style="rounded=0;whiteSpace=wrap;html=1;" vertex="1" parent="1">
          <mxGeometry x="270" y="475" width="120" height="110" as="geometry" />
        </mxCell>
        <mxCell id="QXCr8s2CiWURYvBZmWhz-18" value="" style="rounded=0;whiteSpace=wrap;html=1;" vertex="1" parent="1">
          <mxGeometry x="485" y="475" width="120" height="110" as="geometry" />
        </mxCell>
        <mxCell id="QXCr8s2CiWURYvBZmWhz-19" value="" style="rounded=0;whiteSpace=wrap;html=1;" vertex="1" parent="1">
          <mxGeometry x="650" y="475" width="120" height="110" as="geometry" />
        </mxCell>
        <mxCell id="QXCr8s2CiWURYvBZmWhz-20" value="div" style="text;html=1;strokeColor=#b85450;fillColor=#f8cecc;align=center;verticalAlign=middle;whiteSpace=wrap;rounded=0;" vertex="1" parent="1">
          <mxGeometry x="40" y="430" width="60" height="30" as="geometry" />
        </mxCell>
        <mxCell id="QXCr8s2CiWURYvBZmWhz-21" value="" style="rounded=0;whiteSpace=wrap;html=1;fillColor=none;" vertex="1" parent="1">
          <mxGeometry width="830" height="710" as="geometry" />
        </mxCell>
        <mxCell id="QXCr8s2CiWURYvBZmWhz-22" value="main" style="text;html=1;strokeColor=#82b366;fillColor=#d5e8d4;align=center;verticalAlign=middle;whiteSpace=wrap;rounded=0;" vertex="1" parent="1">
          <mxGeometry width="60" height="30" as="geometry" />
        </mxCell>
      </root>
    </mxGraphModel>
  </diagram>
</mxfile>
